<svg width="251" height="61" viewBox="0 0 251 61" fill="none" xmlns="http://www.w3.org/2000/svg">
<path d="M0 0L230.997 0L251 22.5119V61H0V0Z" fill="white"/>
<path d="M89.8571 23.5714H92.4286V36.2057C92.4286 36.4914 92.5714 36.6343 92.8571 36.6343H95.4286C95.7143 36.6343 95.8571 36.4914 95.8571 36.2057V23.5714H98.4286V37.2857C98.4286 37.7657 98.2629 38.1714 97.9314 38.5029C97.6 38.8343 97.1943 39 96.7143 39H91.5714C91.0914 39 90.6857 38.8343 90.3543 38.5029C90.0229 38.1714 89.8571 37.7657 89.8571 37.2857V23.5714ZM105.718 25.9371H102.718V31.0629H105.718C106.003 31.0629 106.146 30.92 106.146 30.6343V26.3657C106.146 26.08 106.003 25.9371 105.718 25.9371ZM100.146 23.5714H107.003C107.483 23.5714 107.889 23.7371 108.22 24.0686C108.552 24.4 108.718 24.8057 108.718 25.2857V31.7143C108.718 32.1943 108.552 32.6 108.22 32.9314C107.889 33.2629 107.483 33.4286 107.003 33.4286H102.718V39H100.146V23.5714ZM112.15 23.5714H118.578V25.9371H113.435C113.15 25.9371 113.007 26.08 113.007 26.3657V36.2057C113.007 36.4914 113.15 36.6343 113.435 36.6343H116.007C116.292 36.6343 116.435 36.4914 116.435 36.2057V32.4686H114.721V30.1029H119.007V39H116.778L116.538 38.2286H116.521C116.452 38.4457 116.304 38.6286 116.075 38.7771C115.858 38.9257 115.624 39 115.372 39H112.15C111.67 39 111.264 38.8343 110.932 38.5029C110.601 38.1714 110.435 37.7657 110.435 37.2857V25.2857C110.435 24.8057 110.601 24.4 110.932 24.0686C111.264 23.7371 111.67 23.5714 112.15 23.5714ZM126.296 25.9371H123.296V30.1029H126.296C126.581 30.1029 126.724 29.96 126.724 29.6743V26.3657C126.724 26.08 126.581 25.9371 126.296 25.9371ZM120.724 23.5714H127.581C128.05 23.5714 128.45 23.7429 128.781 24.0857C129.124 24.4171 129.296 24.8171 129.296 25.2857V30.7543C129.296 31.2343 129.13 31.64 128.799 31.9714C128.467 32.3029 128.061 32.4686 127.581 32.4686H126.639L129.724 39H126.879L123.776 32.4686H123.296V39H120.724V23.5714ZM135.933 27.7714L134.631 33.2057H137.253L135.951 27.7714H135.933ZM134.322 23.5714H137.545L141.299 39H138.659L137.819 35.5714H134.065L133.225 39H130.585L134.322 23.5714ZM148.163 25.9371H145.163V36.6343H148.163C148.449 36.6343 148.592 36.4914 148.592 36.2057V26.3657C148.592 26.08 148.449 25.9371 148.163 25.9371ZM142.592 23.5714H149.449C149.929 23.5714 150.334 23.7371 150.666 24.0686C150.997 24.4 151.163 24.8057 151.163 25.2857V37.2857C151.163 37.7657 150.997 38.1714 150.666 38.5029C150.334 38.8343 149.929 39 149.449 39H142.592V23.5714ZM152.881 23.5714H160.166V25.9371H155.452V30.1029H159.738V32.4686H155.452V36.6343H160.595V39H152.881V23.5714Z" fill="black"/>
</svg>
