<?xml version="1.0" encoding="utf-8"?>
<svg version="1.1" id="Слой_1" xmlns="http://www.w3.org/2000/svg" xmlns:xlink="http://www.w3.org/1999/xlink" x="0px" y="0px"
	 viewBox="0 0 25 25.2" style="enable-background:new 0 0 25 25.2;" xml:space="preserve">
<style type="text/css">
	.st0{fill:#FFFFFF;}
	.st1{fill:#EA4335;}
	.st2{fill:#4285F4;}
	.st3{fill:#FBBC05;}
	.st4{fill:#34A853;}
</style>
<g>
	<path class="st0" d="M0,12.7C0,5.8,5.6,0.2,12.5,0.2C19.4,0.2,25,5.8,25,12.7c0,6.9-5.6,12.5-12.5,12.5C5.6,25.2,0,19.6,0,12.7z"/>
	<path class="st1" d="M12.5,9.4c1,0,1.7,0.4,2.1,0.8l1.5-1.5c-0.9-0.9-2.2-1.4-3.6-1.4c-2.1,0-3.9,1.2-4.8,3l1.7,1.4
		C9.8,10.3,11,9.4,12.5,9.4z"/>
	<path class="st2" d="M17.7,12.8c0-0.4,0-0.8-0.1-1.1h-5.1v2h3c-0.1,0.5-0.4,1.2-1.1,1.8l1.7,1.3C17.1,15.8,17.7,14.4,17.7,12.8z"/>
	<path class="st3" d="M9.4,13.7c-0.1-0.3-0.2-0.7-0.2-1.1c0-0.4,0.1-0.7,0.2-1.1l-1.7-1.4c-0.4,0.7-0.6,1.6-0.6,2.4
		c0,0.9,0.2,1.7,0.6,2.4L9.4,13.7z"/>
	<path class="st4" d="M12.5,18.1c1.5,0,2.7-0.5,3.6-1.3l-1.7-1.3c-0.5,0.3-1.1,0.5-1.9,0.5C11,16,9.8,15,9.4,13.7l-1.7,1.4
		C8.5,16.9,10.4,18.1,12.5,18.1z"/>
</g>
</svg>
