<?xml version="1.0" encoding="utf-8"?>
<!-- Generator: Adobe Illustrator 27.0.1, SVG Export Plug-In . SVG Version: 6.00 Build 0)  -->
<svg version="1.1" id="Слой_1" xmlns="http://www.w3.org/2000/svg" xmlns:xlink="http://www.w3.org/1999/xlink" x="0px" y="0px"
	 viewBox="0 0 25 25" style="enable-background:new 0 0 25 25;" xml:space="preserve">
<style type="text/css">
	.st0{fill:#4C6C91;}
	.st1{fill:#FFFFFF;}
</style>
<g>
	<path class="st0" d="M0,12.5C0,5.6,5.6,0,12.5,0C19.4,0,25,5.6,25,12.5C25,19.4,19.4,25,12.5,25C5.6,25,0,19.4,0,12.5z"/>
	<path class="st1" d="M13.1,16.6c0,0,0.2,0,0.4-0.2c0.1-0.1,0.1-0.3,0.1-0.3s0-1,0.5-1.2c0.5-0.2,1.1,1,1.8,1.5
		c0.5,0.3,0.9,0.3,0.9,0.3l1.8,0c0,0,0.9-0.1,0.5-0.8c0-0.1-0.3-0.5-1.3-1.5c-1.1-1-1-0.9,0.4-2.6c0.8-1.1,1.1-1.7,1-2
		c-0.1-0.3-0.7-0.2-0.7-0.2l-2,0c0,0-0.1,0-0.3,0C16,9.6,16,9.8,16,9.8s-0.3,0.8-0.7,1.5c-0.9,1.5-1.2,1.6-1.4,1.5
		c-0.3-0.2-0.3-0.9-0.3-1.3c0-1.4,0.2-2-0.4-2.2c-0.2-0.1-0.4-0.1-0.9-0.1c-0.7,0-1.3,0-1.7,0.2c-0.2,0.1-0.4,0.4-0.3,0.4
		c0.1,0,0.4,0.1,0.6,0.3c0.2,0.3,0.2,0.9,0.2,0.9s0.1,1.7-0.3,1.9c-0.3,0.1-0.6-0.2-1.4-1.5c-0.4-0.7-0.7-1.5-0.7-1.5
		S8.6,9.7,8.5,9.6C8.3,9.5,8.2,9.5,8.2,9.5l-1.9,0c0,0-0.3,0-0.4,0.1c-0.1,0.1,0,0.3,0,0.3s1.5,3.4,3.2,5.1c1.5,1.6,3.3,1.5,3.3,1.5
		H13.1z"/>
</g>
</svg>
